<svg width="275" height="279" viewBox="0 0 275 279" fill="none" xmlns="http://www.w3.org/2000/svg">
<mask id="mask0_18082_20877" style="mask-type:luminance" maskUnits="userSpaceOnUse" x="24" y="24" width="227" height="231">
<path d="M24.3486 24H250.281V254.667H24.3486V24Z" fill="white"/>
</mask>
<g mask="url(#mask0_18082_20877)">
<path d="M24.5771 117.199C48.9001 130.131 69.171 122.412 88.4731 108.704C101.02 99.6308 110.286 87.4694 120.52 76.2714C130.75 65.0787 143.296 50.985 155.843 39.5944C183.062 14.6933 224.567 22.0266 242.906 58.1256C245.343 62.6725 247.203 67.4381 248.473 72.4329C249.75 77.4329 250.401 82.5058 250.437 87.6621C250.244 104.652 249.661 121.636 249.276 138.433C247.541 135.344 246.187 131.87 244.453 128.782C232.484 105.037 208.932 97.3131 185.187 109.089C168.203 117.584 155.072 130.516 144.458 145.959C130.364 166.615 117.625 188.042 104.109 209.084C97.546 219.318 90.7907 229.547 83.8428 239.391C80.7698 243.532 77.1657 247.136 73.0303 250.204C67.2386 254.641 61.4469 254.641 57.2021 248.85C51.973 242.016 47.7282 234.615 44.4626 226.652C35.9678 204.454 32.1032 181.287 29.2073 157.735C27.473 144.61 26.1188 131.292 24.5771 117.199Z" fill="#D6D0CA"/>
</g>
<path d="M144.266 161.6C154.495 146.735 165.109 132.642 179.974 122.991C186.74 118.704 194.01 115.616 201.792 113.725C214.146 110.444 223.99 115.652 231.516 125.501C242.328 139.59 245.995 156.001 244.26 173.178C242.307 192.413 237.932 211.069 231.13 229.163C228.708 235.407 225.552 241.267 221.672 246.73C215.88 254.642 208.74 255.803 201.208 249.433C194.693 243.959 189.224 237.59 184.802 230.319C177.469 218.543 171.484 205.996 164.917 193.642C158.354 181.288 153.917 170.673 144.266 161.6Z" fill="#D6D0CA"/>
<mask id="mask1_18082_20877" style="mask-type:luminance" maskUnits="userSpaceOnUse" x="24" y="25" width="105" height="90">
<path d="M24 25.334H128.349V114.667H24V25.334Z" fill="white"/>
</mask>
<g mask="url(#mask1_18082_20877)">
<path d="M127.854 54.2668C112.411 70.0949 100.635 88.6261 82.6823 101.564C71.875 109.475 60.2917 115.459 46.3906 114.496C41.5781 114.069 37.0104 112.782 32.6875 110.637C27.0885 108.126 24 103.683 24 96.5428C24 83.4178 24.7708 70.4803 30.3698 58.1261C41.1771 33.9959 68.0104 20.2928 91.3698 27.2407C106.427 31.6834 117.625 41.5272 127.854 54.2668Z" fill="#D6D0CA"/>
</g>
</svg>
