<svg xmlns="http://www.w3.org/2000/svg" xmlns:xlink="http://www.w3.org/1999/xlink" width="851" zoomAndPan="magnify" viewBox="0 0 638.25 236.249991" height="315" preserveAspectRatio="xMidYMid meet" version="1.0"><defs><g/><clipPath id="d5bd33d906"><rect x="0" width="301" y="0" height="86"/></clipPath></defs><g transform="matrix(1, 0, 0, 1, 169, 74)"><g clip-path="url(#d5bd33d906)"><g fill="#000000" fill-opacity="1"><g transform="translate(0.504668, 57.743037)"><g><path d="M 10.9375 -1.296875 C 9.101562 -2.015625 7.664062 -2.460938 6.625 -2.640625 C 5.582031 -2.816406 4.816406 -2.804688 4.328125 -2.609375 C 3.847656 -2.410156 3.546875 -2.085938 3.421875 -1.640625 C 3.296875 -1.191406 3.234375 -0.660156 3.234375 -0.046875 L 3.234375 0 L 2.75 0 L 2.75 -15.40625 L 3.234375 -15.40625 L 3.234375 -14.171875 C 3.234375 -12.453125 3.660156 -10.753906 4.515625 -9.078125 C 5.378906 -7.410156 6.546875 -5.910156 8.015625 -4.578125 C 9.492188 -3.253906 11.160156 -2.195312 13.015625 -1.40625 C 14.867188 -0.613281 16.78125 -0.21875 18.75 -0.21875 C 21.375 -0.21875 23.46875 -0.554688 25.03125 -1.234375 C 26.59375 -1.921875 27.742188 -2.835938 28.484375 -3.984375 C 29.222656 -5.140625 29.609375 -6.378906 29.640625 -7.703125 C 29.671875 -8.921875 29.3125 -10.039062 28.5625 -11.0625 C 27.8125 -12.09375 26.796875 -13.066406 25.515625 -13.984375 C 24.242188 -14.898438 22.84375 -15.78125 21.3125 -16.625 C 19.78125 -17.46875 18.269531 -18.3125 16.78125 -19.15625 C 15.289062 -20 13.953125 -20.851562 12.765625 -21.71875 C 10.078125 -23.726562 7.992188 -25.554688 6.515625 -27.203125 C 5.046875 -28.859375 4.175781 -30.515625 3.90625 -32.171875 C 3.632812 -33.828125 3.945312 -35.675781 4.84375 -37.71875 C 5.675781 -39.59375 6.875 -41.210938 8.4375 -42.578125 C 10 -43.941406 11.785156 -44.988281 13.796875 -45.71875 C 15.804688 -46.457031 17.890625 -46.828125 20.046875 -46.828125 C 21.015625 -46.828125 21.96875 -46.742188 22.90625 -46.578125 C 23.84375 -46.421875 24.722656 -46.144531 25.546875 -45.75 C 26.015625 -45.539062 26.585938 -45.289062 27.265625 -45 C 27.953125 -44.707031 28.632812 -44.476562 29.3125 -44.3125 C 30 -44.15625 30.582031 -44.125 31.0625 -44.21875 C 31.550781 -44.3125 31.8125 -44.609375 31.84375 -45.109375 L 31.84375 -45.328125 L 32.328125 -45.328125 L 32.328125 -32.546875 L 31.84375 -32.546875 C 31.84375 -32.546875 31.816406 -32.859375 31.765625 -33.484375 C 31.710938 -34.117188 31.601562 -34.921875 31.4375 -35.890625 C 31.28125 -36.859375 31.015625 -37.898438 30.640625 -39.015625 C 30.265625 -40.128906 29.757812 -41.1875 29.125 -42.1875 C 28.5 -43.195312 27.703125 -44.007812 26.734375 -44.625 C 25.796875 -45.164062 24.757812 -45.585938 23.625 -45.890625 C 22.5 -46.191406 21.304688 -46.34375 20.046875 -46.34375 C 17.960938 -46.34375 16.304688 -46.023438 15.078125 -45.390625 C 13.859375 -44.765625 13 -43.910156 12.5 -42.828125 C 12 -41.753906 11.75 -40.535156 11.75 -39.171875 C 11.75 -37.347656 12.375 -35.722656 13.625 -34.296875 C 14.882812 -32.878906 16.8125 -31.378906 19.40625 -29.796875 C 21.625 -28.429688 23.722656 -27.226562 25.703125 -26.1875 C 27.679688 -25.144531 29.425781 -24.066406 30.9375 -22.953125 C 32.445312 -21.835938 33.640625 -20.507812 34.515625 -18.96875 C 35.398438 -17.425781 35.84375 -15.46875 35.84375 -13.09375 C 35.84375 -11.550781 35.484375 -9.90625 34.765625 -8.15625 C 34.046875 -6.414062 33.144531 -5.007812 32.0625 -3.9375 C 30.914062 -2.78125 29.5 -1.867188 27.8125 -1.203125 C 26.125 -0.546875 24.300781 -0.117188 22.34375 0.078125 C 20.382812 0.273438 18.425781 0.253906 16.46875 0.015625 C 14.507812 -0.210938 12.664062 -0.648438 10.9375 -1.296875 Z M 10.9375 -1.296875 "/></g></g></g><g fill="#000000" fill-opacity="1"><g transform="translate(37.95018, 57.743037)"><g><path d="M 9.328125 -40.46875 L 9.328125 -5.921875 C 9.398438 -4.160156 10 -2.8125 11.125 -1.875 C 12.257812 -0.945312 13.707031 -0.484375 15.46875 -0.484375 L 15.46875 0 L 2.6875 0 L 2.6875 -0.484375 C 4.59375 -0.484375 6.09375 -0.96875 7.1875 -1.9375 C 8.289062 -2.90625 8.84375 -4.234375 8.84375 -5.921875 L 8.84375 -40.46875 C 8.84375 -41.90625 8.535156 -43 7.921875 -43.75 C 7.304688 -44.507812 6.585938 -45.039062 5.765625 -45.34375 C 4.941406 -45.65625 4.222656 -45.835938 3.609375 -45.890625 C 2.992188 -45.941406 2.6875 -45.96875 2.6875 -45.96875 L 2.6875 -46.453125 L 18.703125 -46.453125 L 32.765625 -14.015625 L 46.828125 -46.453125 L 63.96875 -46.453125 L 63.96875 -45.921875 C 63.96875 -45.921875 63.660156 -45.898438 63.046875 -45.859375 C 62.441406 -45.828125 61.734375 -45.648438 60.921875 -45.328125 C 60.109375 -45.003906 59.394531 -44.453125 58.78125 -43.671875 C 58.175781 -42.898438 57.875 -41.757812 57.875 -40.25 L 57.875 -5.921875 C 57.945312 -4.160156 58.546875 -2.8125 59.671875 -1.875 C 60.804688 -0.945312 62.253906 -0.484375 64.015625 -0.484375 L 64.015625 0 L 40.734375 0 L 40.734375 -0.484375 C 42.640625 -0.484375 44.140625 -0.96875 45.234375 -1.9375 C 46.335938 -2.90625 46.890625 -4.234375 46.890625 -5.921875 L 46.890625 -45.375 L 27.046875 0.4375 Z M 9.328125 -40.46875 "/></g></g></g><g fill="#000000" fill-opacity="1"><g transform="translate(104.651673, 57.743037)"><g><path d="M 2.6875 -0.484375 C 4.664062 -0.484375 6.21875 -0.992188 7.34375 -2.015625 C 8.476562 -3.046875 9.046875 -4.441406 9.046875 -6.203125 L 9.046875 -40.25 C 9.046875 -42.050781 8.476562 -43.453125 7.34375 -44.453125 C 6.21875 -45.460938 4.664062 -45.96875 2.6875 -45.96875 L 2.6875 -46.453125 L 26.5625 -46.453125 L 26.5625 -45.96875 C 24.59375 -45.96875 23.039062 -45.460938 21.90625 -44.453125 C 20.769531 -43.453125 20.203125 -42.050781 20.203125 -40.25 L 20.203125 -6.203125 C 20.203125 -4.441406 20.769531 -3.046875 21.90625 -2.015625 C 23.039062 -0.992188 24.59375 -0.484375 26.5625 -0.484375 L 26.5625 0 L 2.6875 0 Z M 2.6875 -0.484375 "/></g></g></g><g fill="#000000" fill-opacity="1"><g transform="translate(133.907654, 57.743037)"><g><path d="M 2.6875 -0.484375 C 4.664062 -0.484375 6.21875 -0.992188 7.34375 -2.015625 C 8.476562 -3.046875 9.046875 -4.441406 9.046875 -6.203125 L 9.046875 -40.25 C 9.046875 -42.050781 8.476562 -43.453125 7.34375 -44.453125 C 6.21875 -45.460938 4.664062 -45.96875 2.6875 -45.96875 L 2.6875 -46.453125 L 26.5625 -46.453125 L 26.5625 -45.96875 C 24.59375 -45.96875 23.039062 -45.460938 21.90625 -44.453125 C 20.769531 -43.453125 20.203125 -42.050781 20.203125 -40.25 L 20.203125 -6.203125 C 20.203125 -4.441406 20.769531 -3.046875 21.90625 -2.015625 C 23.039062 -0.992188 24.59375 -0.484375 26.5625 -0.484375 C 31.195312 -0.484375 35.066406 -1.453125 38.171875 -3.390625 C 41.285156 -5.335938 43.488281 -8.265625 44.78125 -12.171875 L 45.265625 -12.171875 L 41.71875 0 L 2.6875 0 Z M 2.6875 -0.484375 "/></g></g></g><g fill="#000000" fill-opacity="1"><g transform="translate(180.781772, 57.743037)"><g><path d="M 2.6875 -0.484375 C 4.664062 -0.484375 6.21875 -0.992188 7.34375 -2.015625 C 8.476562 -3.046875 9.046875 -4.441406 9.046875 -6.203125 L 9.046875 -40.25 C 9.046875 -42.050781 8.476562 -43.453125 7.34375 -44.453125 C 6.21875 -45.460938 4.664062 -45.96875 2.6875 -45.96875 L 2.6875 -46.453125 L 26.5625 -46.453125 L 26.5625 -45.96875 C 24.59375 -45.96875 23.039062 -45.460938 21.90625 -44.453125 C 20.769531 -43.453125 20.203125 -42.050781 20.203125 -40.25 L 20.203125 -6.203125 C 20.203125 -4.441406 20.769531 -3.046875 21.90625 -2.015625 C 23.039062 -0.992188 24.59375 -0.484375 26.5625 -0.484375 L 26.5625 0 L 2.6875 0 Z M 2.6875 -0.484375 "/></g></g></g><g fill="#000000" fill-opacity="1"><g transform="translate(210.037752, 57.743037)"><g><path d="M 10.9375 -1.296875 C 9.101562 -2.015625 7.664062 -2.460938 6.625 -2.640625 C 5.582031 -2.816406 4.816406 -2.804688 4.328125 -2.609375 C 3.847656 -2.410156 3.546875 -2.085938 3.421875 -1.640625 C 3.296875 -1.191406 3.234375 -0.660156 3.234375 -0.046875 L 3.234375 0 L 2.75 0 L 2.75 -15.40625 L 3.234375 -15.40625 L 3.234375 -14.171875 C 3.234375 -12.453125 3.660156 -10.753906 4.515625 -9.078125 C 5.378906 -7.410156 6.546875 -5.910156 8.015625 -4.578125 C 9.492188 -3.253906 11.160156 -2.195312 13.015625 -1.40625 C 14.867188 -0.613281 16.78125 -0.21875 18.75 -0.21875 C 21.375 -0.21875 23.46875 -0.554688 25.03125 -1.234375 C 26.59375 -1.921875 27.742188 -2.835938 28.484375 -3.984375 C 29.222656 -5.140625 29.609375 -6.378906 29.640625 -7.703125 C 29.671875 -8.921875 29.3125 -10.039062 28.5625 -11.0625 C 27.8125 -12.09375 26.796875 -13.066406 25.515625 -13.984375 C 24.242188 -14.898438 22.84375 -15.78125 21.3125 -16.625 C 19.78125 -17.46875 18.269531 -18.3125 16.78125 -19.15625 C 15.289062 -20 13.953125 -20.851562 12.765625 -21.71875 C 10.078125 -23.726562 7.992188 -25.554688 6.515625 -27.203125 C 5.046875 -28.859375 4.175781 -30.515625 3.90625 -32.171875 C 3.632812 -33.828125 3.945312 -35.675781 4.84375 -37.71875 C 5.675781 -39.59375 6.875 -41.210938 8.4375 -42.578125 C 10 -43.941406 11.785156 -44.988281 13.796875 -45.71875 C 15.804688 -46.457031 17.890625 -46.828125 20.046875 -46.828125 C 21.015625 -46.828125 21.96875 -46.742188 22.90625 -46.578125 C 23.84375 -46.421875 24.722656 -46.144531 25.546875 -45.75 C 26.015625 -45.539062 26.585938 -45.289062 27.265625 -45 C 27.953125 -44.707031 28.632812 -44.476562 29.3125 -44.3125 C 30 -44.15625 30.582031 -44.125 31.0625 -44.21875 C 31.550781 -44.3125 31.8125 -44.609375 31.84375 -45.109375 L 31.84375 -45.328125 L 32.328125 -45.328125 L 32.328125 -32.546875 L 31.84375 -32.546875 C 31.84375 -32.546875 31.816406 -32.859375 31.765625 -33.484375 C 31.710938 -34.117188 31.601562 -34.921875 31.4375 -35.890625 C 31.28125 -36.859375 31.015625 -37.898438 30.640625 -39.015625 C 30.265625 -40.128906 29.757812 -41.1875 29.125 -42.1875 C 28.5 -43.195312 27.703125 -44.007812 26.734375 -44.625 C 25.796875 -45.164062 24.757812 -45.585938 23.625 -45.890625 C 22.5 -46.191406 21.304688 -46.34375 20.046875 -46.34375 C 17.960938 -46.34375 16.304688 -46.023438 15.078125 -45.390625 C 13.859375 -44.765625 13 -43.910156 12.5 -42.828125 C 12 -41.753906 11.75 -40.535156 11.75 -39.171875 C 11.75 -37.347656 12.375 -35.722656 13.625 -34.296875 C 14.882812 -32.878906 16.8125 -31.378906 19.40625 -29.796875 C 21.625 -28.429688 23.722656 -27.226562 25.703125 -26.1875 C 27.679688 -25.144531 29.425781 -24.066406 30.9375 -22.953125 C 32.445312 -21.835938 33.640625 -20.507812 34.515625 -18.96875 C 35.398438 -17.425781 35.84375 -15.46875 35.84375 -13.09375 C 35.84375 -11.550781 35.484375 -9.90625 34.765625 -8.15625 C 34.046875 -6.414062 33.144531 -5.007812 32.0625 -3.9375 C 30.914062 -2.78125 29.5 -1.867188 27.8125 -1.203125 C 26.125 -0.546875 24.300781 -0.117188 22.34375 0.078125 C 20.382812 0.273438 18.425781 0.253906 16.46875 0.015625 C 14.507812 -0.210938 12.664062 -0.648438 10.9375 -1.296875 Z M 10.9375 -1.296875 "/></g></g></g><g fill="#000000" fill-opacity="1"><g transform="translate(247.483264, 57.743037)"><g><path d="M 13.84375 -0.484375 C 15.820312 -0.484375 17.375 -0.992188 18.5 -2.015625 C 19.632812 -3.046875 20.203125 -4.441406 20.203125 -6.203125 L 20.203125 -45.96875 L 19.671875 -45.96875 C 17.046875 -45.96875 14.816406 -45.6875 12.984375 -45.125 C 11.148438 -44.570312 9.628906 -43.851562 8.421875 -42.96875 C 7.222656 -42.09375 6.265625 -41.171875 5.546875 -40.203125 C 4.828125 -39.234375 4.296875 -38.296875 3.953125 -37.390625 C 3.617188 -36.492188 3.394531 -35.78125 3.28125 -35.25 L 3.125 -34.28125 L 2.6875 -34.484375 L 4.53125 -46.453125 L 47 -46.453125 L 48.828125 -34.484375 L 48.390625 -34.28125 L 48.234375 -35.25 C 48.128906 -35.78125 47.90625 -36.492188 47.5625 -37.390625 C 47.21875 -38.296875 46.6875 -39.234375 45.96875 -40.203125 C 45.25 -41.171875 44.285156 -42.09375 43.078125 -42.96875 C 41.878906 -43.851562 40.363281 -44.570312 38.53125 -45.125 C 36.695312 -45.6875 34.46875 -45.96875 31.84375 -45.96875 L 31.359375 -45.96875 L 31.359375 -6.203125 C 31.359375 -4.441406 31.925781 -3.046875 33.0625 -2.015625 C 34.195312 -0.992188 35.75 -0.484375 37.71875 -0.484375 L 37.71875 0 L 13.84375 0 Z M 13.84375 -0.484375 "/></g></g></g></g></g></svg>