<?xml version="1.0" encoding="utf-8"?>
<!-- Generator: Adobe Illustrator 27.5.0, SVG Export Plug-In . SVG Version: 6.00 Build 0)  -->
<svg version="1.1" xmlns="http://www.w3.org/2000/svg" xmlns:xlink="http://www.w3.org/1999/xlink" x="0px" y="0px"
	 viewBox="0 0 2200 2200" style="enable-background:new 0 0 2200 2200;" xml:space="preserve">
<g id="Background">
	<rect style="fill:#FFFFFF;" width="2200" height="2200"/>
</g>
<g id="Objects">
	<path style="fill:#2C6A91;" d="M2009.24,1025.789c-71.639-10.456-144.988-9.262-216.57,2.818
		c-111.965,18.847-220.241,65.119-309.719,135.65c-3.818,2.962-7.79,6.178-11.8,9.411c-8.6-13.876-18.973-26.624-32.082-36.69
		c-11.52-8.912-25.547-15.667-40.056-17.599c-30.826-4.644-66.512,9.481-78.219,40.188c-12.139,30.8,5.677,66.228,33.72,81.312
		c10.296,5.623,22.338,8.712,33.931,9.345c20.791,1.107,40.058-4.285,58.168-13.391c1.677-0.857,3.328-1.753,4.966-2.668
		c26.439,67.684,33.33,141.271,32.129,213.941c-1.082,60.791-7.277,122.717-13.871,183.375c-1.923,15.76-4.694,31.203-10.367,45.411
		c-1.6,3.908-3.469,7.966-5.659,11.569c-4.312,7.398-10.543,14.14-17.318,19.032c-6.77,4.605-13.054,7.478-20.54,7.971l-0.881,0.097
		c0,0-0.859-0.043-0.859-0.043c-1.137-0.004-2.276-0.018-3.394-0.22c0,0-0.84-0.085-0.839-0.085
		c-13.128-2.098-23.875-13.81-30.074-25.459c-6.007-11.304-8.563-22.753-10.769-35.99c-1.987-12.271-3.294-26.25-5.242-39.253
		c-0.959-6.188-3.469-21.086-4.382-27.058c-10.984-60.985-27.556-121.579-52.807-178.517c-14.35-32.029-31.19-62.989-51.387-91.825
		c-5.41-7.486-11.996-16.768-18.277-23.609c-4.002-4.576-9.373-9.96-13.849-14.059l-2.996-2.587c0,0-3.005-2.577-3.005-2.577
		c-71.73-59.714-179.96-54.043-245.166,12.763c-2.543,2.76-5.612,6.007-8.037,8.794c0,0-5.003,6.151-5.003,6.151
		c-3.226,4.001-6.294,8.505-9.208,12.717c-53.47,82.768-65.696,183.657-83.738,277.244c-4.889,25.281-9.639,49.828-17.572,73.631
		c-2.504,7.37-5.279,14.404-8.372,20.192c-3.022,5.844-6.46,10.439-9.023,12.582c-1.283,1.111-2.246,1.728-3.028,2.036
		c-1.878,0.787-4.687,0.583-6.852,0.448c-0.905-0.106-2.13-0.213-3.029-0.378c-58.449-10.293-69.034-99.456-69.764-149.063
		c-0.641-73.335,2.171-147.24-1.409-220.843c-3.172-64.117-13.334-127.906-29.226-190.014
		c-15.822-66.422-43.044-127.944-68.722-189.566c86.864,28.385,171.883,63.226,259.1,90.392
		c103.85,32.219,213.935,55.744,323.145,43.181c37.042-4.139,73.734-12.758,108.697-25.712
		c141.22-52.6,251.408-182.725,276.515-331.81c9.743-57.233,5.643-118.509-19.055-171.808
		c-29.257-63.257-89.29-114.745-159.935-122.657c0,0-1.924-0.268-1.924-0.268c-0.643-0.073-1.288-0.106-1.932-0.161l-7.738-0.57
		c0,0-3.87-0.265-3.87-0.264c0,0-3.863-0.032-3.862-0.032c-44.684-1.008-87.979,14.122-127.198,32.476
		c-61.764,28.134-119.739,69.248-187.571,78.385c-5.688,0.698-11.368,1.239-17.076,1.244l-5.695,0.072
		c-0.475,0.003-0.948,0.026-1.425,0.012c0,0-1.435-0.075-1.435-0.074c0,0-2.87-0.143-2.87-0.143s-5.739-0.265-5.739-0.265
		c-3.294-0.301-8.367-0.905-11.555-1.246c-96.621-14.941-177.395-83.484-276.423-95.794c-4.104-0.341-11.239-1.299-15.156-1.37
		c0,0-7.665-0.324-7.665-0.324c-1.28-0.037-2.55-0.133-3.838-0.117c-2.571,0.002-8.962,0.214-11.597,0.222
		c-5.053,0.27-10.468,0.725-15.492,1.237c0,0-7.712,1.167-7.712,1.167c0,0-3.854,0.6-3.854,0.6
		c-29.474,5.105-58.119,17.789-82.04,35.148c-55.078,39.911-91.218,102.957-103.108,169.39c-1.125,6.597-2.517,15.179-3.132,21.782
		c0,0-0.795,7.278-0.795,7.278c0,0-0.197,1.82-0.197,1.82l-0.114,1.819c0,0-0.223,3.638-0.223,3.638
		c-4.838,70.405,11.564,140.474,34.862,206.468c-17.374-3.857-34.853-7.282-52.468-10.151
		c-106.644-18.227-221.107-16.168-320.359,31.271c-4.719,2.235-6.861,7.837-4.765,12.662c2.139,4.926,7.871,7.184,12.795,5.041
		c96.453-42.293,205.446-41.075,307.319-21.104c23.615,4.461,46.945,9.917,70.074,16.078
		c27.997,71.815,61.473,140.441,81.138,214.474c17.638,66.581,28.889,134.91,31.208,203.763
		c2.427,61.635,0.738,123.288,0.904,185.303c-0.063,53.677,4.017,107.759,29.134,157.114
		c20.796,40.791,59.755,71.802,107.153,72.497c57.57,0.406,79.079-58.292,90.447-104.671
		c24.538-100.708,27.824-208.835,78.833-299.926c5.607-9.618,11.937-19.107,19.566-27.24c16.956-18.604,39.924-31.345,64.514-36.597
		c37.106-7.926,77.745,1.729,106.487,26.71c2.556,2.044,5.527,5.014,7.969,7.345c2.045,2.282,5.446,5.729,7.241,8.135
		c35.08,44.446,60.128,96.358,78.881,149.644c13.815,40.315,24.214,82.51,31.382,124.799c5.255,27.461,6.123,55.102,15.115,82.461
		c15.131,47.35,58.403,85.799,110.323,72.613c31.924-8.51,56.388-32.548,69.633-61.816c9.561-20.785,13.698-43.712,16.146-65.725
		c2.797-27.19,4.83-53.405,6.976-80.573c8.807-116.59,9.928-239.489-38.103-348.875c2.515-2.058,5.01-4.126,7.486-6.188
		c139.043-118.741,327.971-172.87,509.967-152.13c6.422,0.748,12.323-3.749,13.262-10.194
		C2020.345,1032.842,2015.802,1026.746,2009.24,1025.789z M594.769,790.114c-8.595-42.013-11.759-85.268-4.287-127.583
		c8.968-51.163,36.38-100.417,78.485-131.359c18.07-13.142,38.381-22.146,60.212-25.515l5.459-0.88l5.53-0.49l2.765-0.254
		c0.922-0.087,1.84-0.195,2.777-0.183l5.595-0.127c0,0,2.798-0.078,2.798-0.078c0.933-0.024,1.882,0.062,2.822,0.086
		c0,0,5.654,0.211,5.654,0.211c1.878,0.008,3.787,0.263,5.687,0.434l5.706,0.535c1.908,0.224,3.829,0.564,5.743,0.834
		c1.918,0.306,3.829,0.52,5.755,0.891l5.784,1.153c1.929,0.381,3.857,0.725,5.798,1.241
		c67.515,16.262,128.277,55.331,196.053,76.687c32.145,10.419,67.98,17.061,102.345,14.724
		c62.69-3.868,119.069-34.143,172.82-62.704c43.703-22.846,88.583-47.965,137.855-51.595c3.38-0.347,7.763-0.346,11.234-0.335
		c0,0,2.802-0.022,2.802-0.022c0,0,2.779,0.188,2.779,0.188c32.235,1.269,61.723,14.944,85.668,36.334
		c81.686,73.182,71.658,199.935,28.928,291.733c-48.852,106.701-147.157,190.551-261.681,218.089
		c-51.599,13.144-105.619,15.935-158.614,12.079c-168.342-12.749-322.725-84.999-483.608-130.988
		C617.745,873.107,603.612,832.527,594.769,790.114z M1391.056,1210.68c-6.07-0.496-11.767-1.929-17.018-4.842
		c-14.519-8.172-24.323-30.378-6.096-40.469c9.703-5.441,22.485-5.951,32.743-1.743c4.23,1.887,8.374,4.419,11.978,7.347
		c9.426,7.66,16.676,17.468,22.727,28.109C1421.652,1206.699,1406.599,1211.797,1391.056,1210.68z"/>
</g>
</svg>
